<svg width="60" height="61" viewBox="0 0 60 61" fill="none" xmlns="http://www.w3.org/2000/svg">
<path d="M6.51562 25.9949H6.3252C6.05396 25.9377 5.81647 25.7752 5.66476 25.5432C5.51306 25.3112 5.45954 25.0285 5.51591 24.7571C6.63691 19.3322 9.59159 14.4588 13.8831 10.9562C18.1747 7.45359 23.5414 5.53545 29.0808 5.52429C29.3586 5.52429 29.625 5.63464 29.8214 5.83105C30.0178 6.02747 30.1281 6.29386 30.1281 6.57163C30.1219 6.84525 30.0088 7.10558 29.8131 7.29687C29.6174 7.48817 29.3545 7.59524 29.0808 7.59517C24.0212 7.588 19.1128 9.31989 15.1781 12.5006C11.2433 15.6814 8.52115 20.1178 7.46775 25.0665C7.44106 25.3076 7.33155 25.5319 7.15792 25.7012C6.98428 25.8705 6.75726 25.9743 6.51562 25.9949V25.9949Z" fill="#194F94"/>
<path d="M9.29942 25.0663L6.51448 28.8271C6.46835 28.9061 6.40233 28.9717 6.32298 29.0173C6.24363 29.0628 6.15372 29.0868 6.06222 29.0868C5.97072 29.0868 5.88082 29.0628 5.80147 29.0173C5.72212 28.9717 5.65609 28.9061 5.60996 28.8271L3.80094 24.5664C3.76082 24.4845 3.74389 24.3932 3.75196 24.3023C3.76004 24.2114 3.79283 24.1245 3.84677 24.051C3.90071 23.9774 3.97375 23.92 4.05798 23.885C4.14221 23.85 4.23442 23.8387 4.32461 23.8523L8.91857 24.3998C8.98874 24.4161 9.05478 24.4468 9.11256 24.4899C9.17033 24.5329 9.21861 24.5874 9.25435 24.65C9.2901 24.7125 9.31256 24.7818 9.32031 24.8534C9.32807 24.9251 9.32095 24.9975 9.29942 25.0663Z" fill="#194F94"/>
<path d="M24.4171 54.9867H24.2029C18.778 53.8657 13.9046 50.911 10.402 46.6195C6.89939 42.3279 4.98125 36.9613 4.97009 31.4218C4.97002 31.1482 5.0771 30.8853 5.26839 30.6896C5.45969 30.4938 5.72 30.3807 5.99362 30.3745C6.27139 30.3745 6.53778 30.4849 6.73419 30.6813C6.93061 30.8777 7.04096 31.1441 7.04096 31.4218C7.07754 36.4632 8.84122 41.3395 12.0379 45.2379C15.2346 49.1363 19.671 51.8211 24.6075 52.8445C24.879 52.8697 25.1293 53.0017 25.3034 53.2116C25.4775 53.4214 25.5611 53.6918 25.5358 53.9632C25.5106 54.2347 25.3785 54.485 25.1687 54.6591C24.9589 54.8332 24.6886 54.9168 24.4171 54.8915V54.9867Z" fill="#194F94"/>
<path d="M24.5818 51.1056L28.2951 53.8667C28.3741 53.9129 28.4396 53.9789 28.4852 54.0582C28.5308 54.1376 28.5547 54.2275 28.5547 54.319C28.5547 54.4105 28.5308 54.5004 28.4852 54.5797C28.4396 54.6591 28.3741 54.7251 28.2951 54.7713L24.0581 56.5802C23.9824 56.697 23.8633 56.7789 23.7272 56.808C23.591 56.837 23.4489 56.8107 23.3321 56.735C23.2153 56.6592 23.1334 56.5402 23.1044 56.404C23.0754 56.2679 23.1017 56.1258 23.1774 56.009L23.7249 51.3912C23.7438 51.3019 23.7858 51.2191 23.8466 51.1511C23.9074 51.083 23.985 51.032 24.0716 51.0031C24.1582 50.9742 24.2508 50.9685 24.3403 50.9864C24.4298 51.0044 24.5131 51.0455 24.5818 51.1056V51.1056Z" fill="#194F94"/>
<path d="M30.8429 55.4389C30.5714 55.4389 30.3111 55.3311 30.1191 55.1391C29.9272 54.9472 29.8193 54.6868 29.8193 54.4154C29.8193 54.1417 29.9263 53.8789 30.1176 53.6831C30.3089 53.4874 30.5692 53.3743 30.8429 53.3681C35.9058 53.3632 40.8124 51.6135 44.7361 48.4138C48.6599 45.2141 51.361 40.7599 52.3845 35.8015C52.4576 35.55 52.6222 35.3349 52.846 35.1987C53.0698 35.0626 53.3365 35.0152 53.5934 35.066C53.8504 35.1168 54.079 35.2621 54.2342 35.4731C54.3893 35.6841 54.4598 35.9457 54.4316 36.2061C53.3056 41.6329 50.3463 46.5069 46.0508 50.0092C41.7552 53.5115 36.3852 55.4288 30.8429 55.4389Z" fill="#194F94"/>
<path d="M50.5502 35.8252L53.3352 32.2072C53.3819 32.1477 53.4416 32.0997 53.5096 32.0667C53.5777 32.0337 53.6523 32.0165 53.7279 32.0165C53.8035 32.0165 53.8782 32.0337 53.9462 32.0667C54.0142 32.0997 54.0739 32.1477 54.1207 32.2072L55.9535 36.4441C55.9928 36.5294 56.0085 36.6237 55.9988 36.7172C55.9891 36.8107 55.9544 36.8998 55.8985 36.9753C55.8425 37.0508 55.7672 37.1098 55.6806 37.1462C55.5939 37.1825 55.4991 37.1949 55.406 37.182L50.812 36.6107C50.7334 36.5887 50.6613 36.5477 50.6021 36.4913C50.543 36.4349 50.4985 36.365 50.4727 36.2875C50.4468 36.21 50.4404 36.1272 50.4539 36.0467C50.4674 35.9661 50.5005 35.89 50.5502 35.8252V35.8252Z" fill="#194F94"/>
<path d="M53.861 30.5885C53.5896 30.5885 53.3292 30.4807 53.1373 30.2887C52.9453 30.0968 52.8375 29.8364 52.8375 29.565C52.7997 24.5203 51.0327 19.6413 47.8313 15.7425C44.6299 11.8436 40.188 9.16091 35.2471 8.14229C34.9886 8.07296 34.7664 7.90727 34.6262 7.67924C34.486 7.45122 34.4384 7.17815 34.4933 6.91615C34.5481 6.65415 34.7012 6.42308 34.9211 6.27041C35.1409 6.11774 35.4109 6.05507 35.6756 6.09524C41.1024 7.22119 45.9763 10.1805 49.4786 14.4761C52.9809 18.7716 54.8982 24.1416 54.9083 29.684C54.8736 29.9363 54.7481 30.1673 54.5553 30.3338C54.3626 30.5003 54.1157 30.5909 53.861 30.5885Z" fill="#194F94"/>
<path d="M35.2692 9.85543L31.5797 7.07049C31.5001 7.02774 31.4336 6.96421 31.3873 6.88667C31.3409 6.80913 31.3164 6.72049 31.3164 6.63014C31.3164 6.5398 31.3409 6.45111 31.3873 6.37357C31.4336 6.29604 31.5001 6.23255 31.5797 6.18979L35.8405 4.35696C35.9247 4.32335 36.0163 4.31222 36.1061 4.32463C36.196 4.33705 36.2811 4.37259 36.3531 4.42778C36.4251 4.48297 36.4815 4.5559 36.5168 4.63946C36.5521 4.72301 36.5651 4.81432 36.5545 4.90441L36.0071 9.4984C35.9898 9.57527 35.9554 9.64722 35.9064 9.70895C35.8574 9.77068 35.7952 9.82057 35.7243 9.85489C35.6533 9.88921 35.5756 9.9071 35.4968 9.90719C35.418 9.90728 35.3402 9.88958 35.2692 9.85543V9.85543Z" fill="#194F94"/>
<path d="M29.9368 49.0592C26.26 49.0592 22.6658 47.9689 19.6087 45.9262C16.5516 43.8835 14.1688 40.9802 12.7618 37.5833C11.3547 34.1864 10.9866 30.4485 11.7039 26.8424C12.4212 23.2363 14.1917 19.9238 16.7916 17.324C19.3915 14.7241 22.7039 12.9535 26.31 12.2362C29.9162 11.5189 33.654 11.8871 37.0509 13.2941C40.4478 14.7012 43.3512 17.0839 45.3939 20.141C47.4366 23.1982 48.5269 26.7923 48.5269 30.4691C48.5206 35.3976 46.56 40.1224 43.075 43.6074C39.5901 47.0923 34.8653 49.0529 29.9368 49.0592V49.0592ZM29.9368 13.9499C26.6696 13.9499 23.4758 14.9187 20.7592 16.7339C18.0426 18.5491 15.9253 21.129 14.675 24.1475C13.4247 27.166 13.0976 30.4875 13.735 33.6919C14.3724 36.8963 15.9457 39.8397 18.2559 42.15C20.5662 44.4602 23.5096 46.0336 26.714 46.671C29.9185 47.3084 33.2399 46.9813 36.2584 45.731C39.2769 44.4807 41.8569 42.3634 43.672 39.6468C45.4872 36.9302 46.456 33.7363 46.456 30.4691C46.456 26.0879 44.7156 21.8862 41.6177 18.7883C38.5197 15.6903 34.318 13.9499 29.9368 13.9499Z" fill="#194F94"/>
<path d="M29.9373 49.0592C24.3436 49.0592 19.9639 40.8948 19.9639 30.4691C19.9639 20.0434 24.3436 11.879 29.9373 11.879C35.531 11.879 39.8393 20.0434 39.8393 30.4691C39.8393 40.8948 35.531 49.0592 29.9373 49.0592ZM29.9373 13.9499C25.6528 13.9499 22.0347 21.5192 22.0347 30.4691C22.0347 39.419 25.6528 46.9883 29.9373 46.9883C34.2218 46.9883 37.8161 39.4428 37.8161 30.4691C37.8161 21.4954 34.2218 13.9499 29.9373 13.9499V13.9499Z" fill="#194F94"/>
<path d="M47.4815 31.5167H12.3722C12.0944 31.5167 11.828 31.4063 11.6316 31.2099C11.4352 31.0135 11.3248 30.7471 11.3248 30.4693C11.331 30.1957 11.4441 29.9355 11.6399 29.7442C11.8356 29.5529 12.0985 29.4458 12.3722 29.4458H47.4815C47.6179 29.4427 47.7536 29.4668 47.8805 29.5168C48.0074 29.5668 48.1231 29.6417 48.2207 29.7371C48.3183 29.8324 48.3958 29.9463 48.4487 30.0721C48.5016 30.1978 48.5289 30.3329 48.5288 30.4693C48.5288 30.7471 48.4185 31.0135 48.2221 31.2099C48.0257 31.4063 47.7593 31.5167 47.4815 31.5167V31.5167Z" fill="#194F94"/>
<path d="M29.9382 49.0592C29.6645 49.0593 29.4017 48.9522 29.2059 48.7609C29.0102 48.5696 28.8971 48.3093 28.8909 48.0357V12.9263C28.8909 12.6486 29.0012 12.3822 29.1976 12.1858C29.394 11.9893 29.6604 11.879 29.9382 11.879C30.0746 11.879 30.2097 11.9062 30.3355 11.9592C30.4612 12.0121 30.5751 12.0896 30.6705 12.1872C30.7658 12.2847 30.8407 12.4004 30.8908 12.5273C30.9408 12.6543 30.9649 12.7899 30.9617 12.9263V48.0357C30.9617 48.3071 30.8539 48.5675 30.6619 48.7595C30.47 48.9514 30.2097 49.0592 29.9382 49.0592Z" fill="#194F94"/>
</svg>
