<svg width="60" height="61" viewBox="0 0 60 61" fill="none" xmlns="http://www.w3.org/2000/svg">
<path fill-rule="evenodd" clip-rule="evenodd" d="M20.4075 37.4043L29.9308 44.3902L25.5692 53.0246L13.4814 44.1574L20.4075 37.4043ZM20.5792 39.8556L16.3751 43.9547L24.8936 50.2036L27.541 44.9625L20.5792 39.8556Z" fill="#FFFFFF"/>
<path fill-rule="evenodd" clip-rule="evenodd" d="M50.9398 3.38571C51.3672 3.36281 51.9115 3.44816 52.3279 3.75363C52.6018 3.95456 53.0608 4.3982 53.0789 5.09994C53.6376 9.09165 53.7845 12.4127 53.6319 15.375L53.6311 15.3905C53.4296 18.3459 52.8766 20.8995 52.0346 23.2497C51.2623 25.5108 50.1595 27.5096 48.8634 29.474C47.6422 31.4252 46.1355 33.3016 44.5635 35.2593L44.4033 35.4589L44.3793 35.4888L43.9555 35.9362L42.4192 37.4372L42.4168 37.4395L31.605 47.9283L16.5049 36.8514L23.3062 23.4153L24.5328 21.0381L24.5558 21.002C25.9805 18.7676 27.3953 16.7395 28.8829 14.9086C30.3825 13.0631 32.0021 11.4526 33.863 10.015C35.8925 8.45116 38.167 7.15376 40.929 6.07277C43.6848 4.99422 46.9178 4.13393 50.8166 3.40053L50.8777 3.38904L50.9398 3.38571ZM43.0808 34.1112C44.6784 32.1216 46.1216 30.3224 47.2798 28.47L47.2921 28.4505C48.5396 26.5606 49.5574 24.7036 50.2624 22.6372L50.2671 22.6235C51.0493 20.4422 51.569 18.0594 51.7598 15.2706C51.9054 12.4326 51.7649 9.21554 51.2133 5.29743L51.2097 5.27196C51.1759 5.264 51.1329 5.25827 51.0886 5.25729C47.2947 5.97416 44.207 6.80334 41.6124 7.8188C39.0071 8.83845 36.8903 10.0494 35.0084 11.4994M43.0808 34.1112L42.9653 34.2551L42.6192 34.6204L41.1113 36.0938L41.1089 36.0961L31.4365 45.4793L18.8957 36.2798L24.9725 24.275L24.9758 24.2686L26.1597 21.9741C27.5518 19.7927 28.9173 17.8396 30.3381 16.091C31.7545 14.3478 33.2719 12.841 35.0084 11.4994" fill="#FFFFFF"/>
<path fill-rule="evenodd" clip-rule="evenodd" d="M46.5054 44.1249L43.5571 34.2215L45.3541 33.6865L48.6088 44.6191L37.2997 56.7369L36.7949 55.2554C36.3731 54.0177 35.9012 52.5972 35.4146 51.1325C34.624 48.7526 33.7946 46.2559 33.0784 44.2368L34.8455 43.6099C35.566 45.6411 36.4097 48.1805 37.2062 50.5779C37.5031 51.4713 37.7933 52.345 38.0682 53.1654L46.5054 44.1249Z" fill="#FFFFFF"/>
<path fill-rule="evenodd" clip-rule="evenodd" d="M14.6728 22.4764L25.1772 22.4747L25.1769 20.5997L13.5793 20.6015L5.41198 35.036L6.97675 35.0727C8.56387 35.1099 10.3541 35.086 12.1442 35.0622C12.296 35.0601 12.4477 35.0581 12.5994 35.0561C14.5502 35.0306 16.4832 35.0111 18.1875 35.0723L18.2548 33.1985C16.4975 33.1354 14.5196 33.1558 12.5749 33.1813C12.4254 33.1833 12.2761 33.1852 12.1272 33.1872C10.9136 33.2034 9.71997 33.2193 8.59569 33.2167L14.6728 22.4764Z" fill="#FFFFFF"/>
<path fill-rule="evenodd" clip-rule="evenodd" d="M14.5334 48.1836C14.9509 48.4899 15.041 49.0766 14.7348 49.4941L9.79739 56.2248C9.49114 56.6422 8.90444 56.7324 8.48695 56.4262C8.06947 56.1199 7.9793 55.5332 8.28555 55.1157L13.2229 48.385C13.5292 47.9676 14.1159 47.8774 14.5334 48.1836Z" fill="#FFFFFF"/>
<path fill-rule="evenodd" clip-rule="evenodd" d="M18.6491 51.1923C19.0666 51.4986 19.1568 52.0853 18.8505 52.5027L15.4247 57.1728C15.1185 57.5903 14.5318 57.6804 14.1143 57.3742C13.6968 57.0679 13.6066 56.4812 13.9129 56.0638L17.3387 51.3937C17.6449 50.9762 18.2316 50.8861 18.6491 51.1923Z" fill="#FFFFFF"/>
<path fill-rule="evenodd" clip-rule="evenodd" d="M40.0478 24.3068C41.9101 24.3068 43.4198 22.7971 43.4198 20.9348C43.4198 19.0725 41.9101 17.5627 40.0478 17.5627C38.1855 17.5627 36.6758 19.0725 36.6758 20.9348C36.6758 22.7971 38.1855 24.3068 40.0478 24.3068ZM40.0478 26.1818C42.9457 26.1818 45.2948 23.8326 45.2948 20.9348C45.2948 18.0369 42.9457 15.6877 40.0478 15.6877C37.15 15.6877 34.8008 18.0369 34.8008 20.9348C34.8008 23.8326 37.15 26.1818 40.0478 26.1818Z" fill="#FFFFFF"/>
</svg>
